<svg width="22" height="22" viewBox="0 0 22 22" fill="none" xmlns="http://www.w3.org/2000/svg">
<g id="material-symbols:location-on-rounded">
<path id="Vector" d="M11.291 11.1734C11.7653 11.1734 12.1715 11.0043 12.5096 10.6663C12.847 10.3288 13.0158 9.92292 13.0158 9.44861C13.0158 8.97431 12.847 8.56812 12.5096 8.23007C12.1715 7.89259 11.7653 7.72385 11.291 7.72385C10.8167 7.72385 10.4108 7.89259 10.0733 8.23007C9.73527 8.56812 9.56625 8.97431 9.56625 9.44861C9.56625 9.92292 9.73527 10.3288 10.0733 10.6663C10.4108 11.0043 10.8167 11.1734 11.291 11.1734ZM11.291 19.4738C11.176 19.4738 11.061 19.4522 10.9461 19.4091C10.8311 19.366 10.7305 19.3085 10.6442 19.2366C8.54576 17.3825 6.97911 15.6615 5.94425 14.0736C4.9094 12.4851 4.39197 11.0009 4.39197 9.62109C4.39197 7.46514 5.08561 5.74757 6.47289 4.46837C7.8596 3.18917 9.46564 2.54958 11.291 2.54958C13.1164 2.54958 14.7224 3.18917 16.1091 4.46837C17.4964 5.74757 18.19 7.46514 18.19 9.62109C18.19 11.0009 17.6726 12.4851 16.6378 14.0736C15.6029 15.6615 14.0363 17.3825 11.9378 19.2366C11.8516 19.3085 11.7509 19.366 11.636 19.4091C11.521 19.4522 11.406 19.4738 11.291 19.4738Z" fill="#FF5F5F"/>
</g>
</svg>
